<?xml version="1.0" encoding="UTF-8"?>
<svg version="1.1" viewBox="0 0 1600 1600" width="1280" height="1280" xmlns="http://www.w3.org/2000/svg">
<path transform="translate(850,242)" d="m0 0h9l28 6 54 14 61 17 200 56 89 25 128 36 47 14 16 6 10 7 5 10 1 24v591l-1 21-3 8-4 6-13 11-5 4-6 1-33-9-125-35-57-16-51-14-130-37-43-12-50-14-51-14-54-16-24-8-12-7-6-5-3-6-1-4-1-13-1-48v-195l1-248 1-128 7-14 13-12z" fill="#D65E2A"/>
<path transform="translate(124,499)" d="m0 0h7l32 8 42 11 51 14 101 29 26 7 56 16 176 49 48 13 28 8 48 14 15 6 11 7 5 6 2 5 1 14v542l-1 79-4 10-5 7-13 9-5 2h-15l-26-7-448-126-69-19-47-14-20-7-10-5-7-9-1-3-1-12-1-79v-413l1-133 7-14 10-11z" fill="#B64750"/>
<path transform="translate(1022,295)" d="m0 0 5 2 7 9 3-3 3 2 1 3 4 1v-4l5 1 4 2 2 4 2 1 1-6 2-1-1-10 10 2 107 30 53 15 54 15 135 38 47 14 16 6 10 7 5 10 1 24v591l-1 21-3 8-4 6-13 11-5 4-6 1-33-9-82-23 2-1-2-5h-2l-1-2-5-3-7-4-1-2-5-2-2-4-6-2-1-4-6-2-4-9-10-4-2-6h-3l-2-6 1-11 2-9h2l-1-4-1-6-3-1 1-5h2v-3l-3 1-3-3v-16l-2-2-1-10 1-17-3-3h-4l-1-6-3-1v-3l2-1v-3h-2v-3h-2l-5-6-3-2v-6l-4-2-6-9-1-4-3-3 1-6h-2l-2-3h-2v-2h-2l-1-4 1-5-3-11-5 1-2-2-2-12-6-5v-6l-3-10h-3l-2-7v-2h-2l-2-4-1-11-4-2 1-3h-2l-2-10v-2l-4-1-1-8h-3l-4-9 1-1-2-1v-6l-2-1-5-16-3-1-3-7-1-11h-2l-2-6-1-6-2-1 1-2h-3l-1-5-3-3v-4h-2l-3-9-3-4v-3h-2l-2-10-1-4-5-2-4-10-4-8-3-12-2-6v-5h-2v-2h-2l-2-7h-2l-3-9-2-4-4-4 1-7h-2l-1 4 1 6 1 5 2 4v4l2 9 1 5-4-2-2-9-3-3-3-7-5-2-3-12-1-3-4-1-1 2-5-5-1-12-3-5-1-3v-8l-2-2v-3h-2l-3-10-1-2h-2l-1-8-3-3-1-9-5-1-3-5-1-8-1-3-3 1-3-12-4-8 1-4 1-3v-9h-4l-2-7h2v2l6-1v-2h-2v-2l-4-1v-7l-5-1-1-4-1-2 2-1v-2l-3-3v-6l-4-3-1-7-2-1 2-4h2l-1-9 3-7-3-5v-9l-1-3 1-2h-2l-1-8-2-1-1-5-4-1v-12l-11-3-2-7 1-5h2l1-3h3l-1-5-2-1 1-2 7 2-3-2-2-8-3-3z" fill="#EB6D10"/>
<path transform="translate(124,499)" d="m0 0h7l32 8 42 11 51 14 52 15 11 3-2 2h-12l-7-1-2 4h-7l-1 10 1 4h-3l1 3h-5l1 6h-2l1 2 5-1 7-3 4-8 5-2 2 2-1 3h5l7-3 3 3 8-4 2 1-2 3-5 2-1 4h-5l-4 4h-2l2 3v11l2 1h-3v4l-5 5 2 9-2 5 2 5v3l2 4v11l-2 4 5 1 1 12 1 4v3l1 4 2 5h2v2l3 1 1 4v9l4 13 3 4 3 8 1 1v11l5 2v6l4 4 1 8 5 2-2 2 2 6v4h2l3 9v8l4 4 2 5 1 4 3 9h2l3 8 1 5 4 1v2h2l-1 5 2 8 4 7 1 4 2 1 3 10 2 2 1 7 3 5 4 5 1 4 1 2-1 4 3 8 8 8v5l1 4 4 10v7l5 5 2 5 2 1-1 7-1 2h3l5 10 1 9 3 1v6l3 9 2 4 2 1-1 5-2 5v2l3-1 1 6 1 1 1 10h6l1 7 1 10h-2l4 4h2l1-2 5 6v6l2 4v2l2 2 1 9 3 3-2 2-2-1 4 6 1 9h2l2 6v10 3l-3 9 5 2-1-3h2l-1 7v2l1 6 3 2-2 2 1 7 4 3-1 8-2 6v2l8 3 2 12 2 7-1 3h-2l1 9 5 5v5l-3 1v2l4 1 4 4-1 6 6 18v2l5 1 1 7 3 1 3 5 5 5 6 4 1 3 2 1 3 5-7 1-3-3-4-1-6-4-11-1h-2-2l-1 2-9-1-3-1v-2l-7 4 3 3 4 2v2l2 1v2l4 1 4 5 3 7 5 3 4 4 10 4v2l6 1 2 1v2l5 2 2 3-7-1-50-14-64-18-233-65-43-13-22-8-6-4-6-8-1-3-1-12-1-79v-413l1-133 7-14 10-11z" fill="#D65E2A"/>
<path transform="translate(415,125)" d="m0 0h12l40 9 42 11 121 34 74 21 30 9 20 7 10 5 5 6 3 10 1 197v102l-1 35-2 7-6 8-9 7-9 6-5 1-14-2-35-10-36-10-81-23-40-11-79-22-35-10-12-5-10-7-5-5-2-9-1-16v-305l2-14 6-12 9-10 4-3z" fill="#B64750"/>
<path transform="translate(852,999)" d="m0 0h11l26 6 41 11 44 12 67 19 80 22 48 14 16 5 10 5 9 8 2 5 1 12v320l-3 12-7 10-3 4h-2l-1 3-7 4-5 1-13-1-31-7-69-19-77-22-54-15-53-15-36-12-12-6-4-5-4-16v-330l4-8 9-9z" fill="#B64750"/>
<path transform="translate(850,242)" d="m0 0h9l20 4 1 3 6 3 1 4 5 2v2l3 1h-6l-1 11 2 7h7v3l2 1-3 8-3 3h-4v5l2 2-4 2v4l4 1 6 3v5l-6 2v4l4-2 4 1-1 4h-2v2h-3v2h-2v7l1 4-4 1v5h6l1 4-1 9-4 2-3-1 1 4 1 5-5 1 1 5-3 2-3-1 2 6h-7l7 9-1 5-1 2-4-1v-2l-3 1 1 5 2 1-1 4-1 3h-2l5 10-1 2-1 3 4 2 3 1 1 3h2v2l4 2 2 8h7l1 3 3 1v2l-4 1 1 5 4 4 11 3 1 4v6l3 4 4 1-4 4 2 1 2 7h3l2 5 5 2-1 3h-2l2 3v3l5-2 1 4 4 1v3l-2 6 4-1v3l3 1 3 3-2 6v4l4 1 2 6 3 8 4 8 4 4 2 7 3 8 3 1v2h2l2 7 2 4 2 10 2 1 3 7 2 2-2 2v7l2 6 5 1v2h-2l1 6v6h3l3 7 3 5v3l3 1 2 4v5l3 7v2l2 1 2 7-2 1 2 5 3 4 1 5 7 5-3 1v4h2l3 9h2v2l4 1v9l3 5-2 2 3 2 1 3 4 4v8l3 7 3 1v2h2l1-2 1 7 2 4-2 3h2l3 8 2 8 7 9 6 5-1 6 4 3 4 1 1 10 2 1 1 2 4 1 3 5v6l4 1v3h2l1 5 5 1 2 4v7h2l2 4v4h2v2l3 1h-2v2l3 1 2 4 1 4h-2l4 4 3-1 1 3 3 1 1 3-1 2h2v3l2 1 1 10 4 8-3 12-1 6 3 4-2 4h-2l4 6-2 1-1 3-5-4-4 8h2v6l-4 6h-2l1 3v3 2h-3l-2 4-4 4h-3l2 4-7 1 1 4 10 1 4 1h19l-3 4v2l6-1 5 3 7 2 6 4v2l-5-1-2-1v2l-10-2-160-45-51-14-54-16-24-8-12-7-6-5-3-6-1-4-1-13-1-48v-195l1-248 1-128 7-14 13-12z" fill="#B64750"/>
<path transform="translate(151,778)" d="m0 0 6 1v2l6-1 6 4 4 6 4 8 4 3 3 1 1 9 2 2h7l3 4v7l3 2 6 3 8 16 2 5 3 5 5 9 4 11 6 13v4l4 2 3 9 2 2 1 5 3 3 3 12 5 8 4 12 1 4h2l-1 4-3 3 2 3 6 3 5 9v7 3l3 3 1 2 4 2-1 6 2 4v2l6 4 1 4h-3v3l5 2-1 9 8 2 1 5v3l2 6 2 3-1 9 5 8-1 7-1 2 3-1-1 11h4l1 4-2 3 3 5-1 7 2 6 2 2 3 11-1 5h2v9l4 6 1 4v10l-1 5 1 2h-2v13l-1 4-1 7 3 11-1 3 1 4-2 4v4h-3l-1 11-1 2h-2l1 3-4 2-3-1v5h-3l4 6v2l-16-4-112-31-43-13-22-8-6-4-6-8-1-3-1-12-1-79v-295h1l1 22 1-7 3-9 2 1 1-5 6 3 4 1h6l7-2 2-2 14-1z" fill="#EB6D10"/>
<path transform="translate(888,372)" d="m0 0 5 1 2 1-1 7-3 1-1 3-3 1-4-4 1-2z" fill="#B64751"/>
<path transform="translate(850,242)" d="m0 0h6l-2 1-2 4-5 1-4-1 5-4z" fill="#D96027"/>
</svg>
